<?xml version="1.0" encoding="UTF-8" standalone="no"?>
<!DOCTYPE svg PUBLIC "-//W3C//DTD SVG 1.1//EN"
 "http://www.w3.org/Graphics/SVG/1.1/DTD/svg11.dtd">
<!-- Generated by graphviz version 2.40.1 (20161225.0304)
 -->
<!-- Title: snakemake_dag Pages: 1 -->
<svg width="330pt" height="620pt"
 viewBox="0.00 0.00 330.30 620.00" xmlns="http://www.w3.org/2000/svg" xmlns:xlink="http://www.w3.org/1999/xlink">
<g id="graph0" class="graph" transform="scale(1 1) rotate(0) translate(4 616)">
<title>snakemake_dag</title>
<polygon fill="#ffffff" stroke="transparent" points="-4,4 -4,-616 326.3037,-616 326.3037,4 -4,4"/>
<!-- 0 -->
<g id="node1" class="node">
<title>0</title>
<path fill="none" stroke="#5682d8" stroke-width="2" d="M235.8037,-36C235.8037,-36 205.8037,-36 205.8037,-36 199.8037,-36 193.8037,-30 193.8037,-24 193.8037,-24 193.8037,-12 193.8037,-12 193.8037,-6 199.8037,0 205.8037,0 205.8037,0 235.8037,0 235.8037,0 241.8037,0 247.8037,-6 247.8037,-12 247.8037,-12 247.8037,-24 247.8037,-24 247.8037,-30 241.8037,-36 235.8037,-36"/>
<text text-anchor="middle" x="220.8037" y="-15.5" font-family="sans" font-size="10.00" fill="#000000">target</text>
</g>
<!-- 1 -->
<g id="node2" class="node">
<title>1</title>
<path fill="none" stroke="#d88556" stroke-width="2" d="M104.8037,-108C104.8037,-108 54.8037,-108 54.8037,-108 48.8037,-108 42.8037,-102 42.8037,-96 42.8037,-96 42.8037,-84 42.8037,-84 42.8037,-78 48.8037,-72 54.8037,-72 54.8037,-72 104.8037,-72 104.8037,-72 110.8037,-72 116.8037,-78 116.8037,-84 116.8037,-84 116.8037,-96 116.8037,-96 116.8037,-102 110.8037,-108 104.8037,-108"/>
<text text-anchor="middle" x="79.8037" y="-87.5" font-family="sans" font-size="10.00" fill="#000000">meraculous</text>
</g>
<!-- 1&#45;&gt;0 -->
<g id="edge3" class="edge">
<title>1&#45;&gt;0</title>
<path fill="none" stroke="#c0c0c0" stroke-width="2" d="M115.384,-71.8314C136.5615,-61.0173 163.3633,-47.3312 184.6426,-36.4652"/>
<polygon fill="#c0c0c0" stroke="#c0c0c0" stroke-width="2" points="186.3762,-39.51 193.6905,-31.845 183.1927,-33.2757 186.3762,-39.51"/>
</g>
<!-- 2 -->
<g id="node3" class="node">
<title>2</title>
<path fill="none" stroke="#56d89a" stroke-width="2" d="M266.8037,-180C266.8037,-180 174.8037,-180 174.8037,-180 168.8037,-180 162.8037,-174 162.8037,-168 162.8037,-168 162.8037,-156 162.8037,-156 162.8037,-150 168.8037,-144 174.8037,-144 174.8037,-144 266.8037,-144 266.8037,-144 272.8037,-144 278.8037,-150 278.8037,-156 278.8037,-156 278.8037,-168 278.8037,-168 278.8037,-174 272.8037,-180 266.8037,-180"/>
<text text-anchor="middle" x="220.8037" y="-159.5" font-family="sans" font-size="10.00" fill="#000000">plot_kmer_coverage</text>
</g>
<!-- 2&#45;&gt;0 -->
<g id="edge1" class="edge">
<title>2&#45;&gt;0</title>
<path fill="none" stroke="#c0c0c0" stroke-width="2" d="M220.8037,-143.7623C220.8037,-119.201 220.8037,-75.2474 220.8037,-46.3541"/>
<polygon fill="#c0c0c0" stroke="#c0c0c0" stroke-width="2" points="224.3038,-46.0896 220.8037,-36.0896 217.3038,-46.0897 224.3038,-46.0896"/>
</g>
<!-- 3 -->
<g id="node4" class="node">
<title>3</title>
<path fill="none" stroke="#56b1d8" stroke-width="2" d="M310.3037,-108C310.3037,-108 275.3037,-108 275.3037,-108 269.3037,-108 263.3037,-102 263.3037,-96 263.3037,-96 263.3037,-84 263.3037,-84 263.3037,-78 269.3037,-72 275.3037,-72 275.3037,-72 310.3037,-72 310.3037,-72 316.3037,-72 322.3037,-78 322.3037,-84 322.3037,-84 322.3037,-96 322.3037,-96 322.3037,-102 316.3037,-108 310.3037,-108"/>
<text text-anchor="middle" x="292.8037" y="-87.5" font-family="sans" font-size="10.00" fill="#000000">plot_kha</text>
</g>
<!-- 3&#45;&gt;0 -->
<g id="edge2" class="edge">
<title>3&#45;&gt;0</title>
<path fill="none" stroke="#c0c0c0" stroke-width="2" d="M274.6351,-71.8314C266.0885,-63.2848 255.748,-52.9443 246.4235,-43.6198"/>
<polygon fill="#c0c0c0" stroke="#c0c0c0" stroke-width="2" points="248.7629,-41.0095 239.217,-36.4133 243.8132,-45.9592 248.7629,-41.0095"/>
</g>
<!-- 4 -->
<g id="node5" class="node">
<title>4</title>
<path fill="none" stroke="#ced856" stroke-width="2" d="M123.8037,-252C123.8037,-252 73.8037,-252 73.8037,-252 67.8037,-252 61.8037,-246 61.8037,-240 61.8037,-240 61.8037,-228 61.8037,-228 61.8037,-222 67.8037,-216 73.8037,-216 73.8037,-216 123.8037,-216 123.8037,-216 129.8037,-216 135.8037,-222 135.8037,-228 135.8037,-228 135.8037,-240 135.8037,-240 135.8037,-246 129.8037,-252 123.8037,-252"/>
<text text-anchor="middle" x="98.8037" y="-231.5" font-family="sans" font-size="10.00" fill="#000000">tmp_gunzip</text>
</g>
<!-- 4&#45;&gt;1 -->
<g id="edge5" class="edge">
<title>4&#45;&gt;1</title>
<path fill="none" stroke="#c0c0c0" stroke-width="2" d="M61.7208,-222.7273C41.3411,-214.4214 17.8203,-200.8727 5.8037,-180 -2.1792,-166.1337 -1.4453,-158.2637 5.8037,-144 12.1818,-131.4501 22.9961,-121.1229 34.4164,-112.9818"/>
<polygon fill="#c0c0c0" stroke="#c0c0c0" stroke-width="2" points="36.3799,-115.8795 42.7845,-107.4396 32.5146,-110.0434 36.3799,-115.8795"/>
</g>
<!-- 5 -->
<g id="node6" class="node">
<title>5</title>
<path fill="none" stroke="#70d856" stroke-width="2" d="M132.8037,-180C132.8037,-180 26.8037,-180 26.8037,-180 20.8037,-180 14.8037,-174 14.8037,-168 14.8037,-168 14.8037,-156 14.8037,-156 14.8037,-150 20.8037,-144 26.8037,-144 26.8037,-144 132.8037,-144 132.8037,-144 138.8037,-144 144.8037,-150 144.8037,-156 144.8037,-156 144.8037,-168 144.8037,-168 144.8037,-174 138.8037,-180 132.8037,-180"/>
<text text-anchor="middle" x="79.8037" y="-159.5" font-family="sans" font-size="10.00" fill="#000000">write_meraculous_conf</text>
</g>
<!-- 4&#45;&gt;5 -->
<g id="edge10" class="edge">
<title>4&#45;&gt;5</title>
<path fill="none" stroke="#c0c0c0" stroke-width="2" d="M94.0092,-215.8314C91.9548,-208.0463 89.5077,-198.7729 87.2281,-190.1347"/>
<polygon fill="#c0c0c0" stroke="#c0c0c0" stroke-width="2" points="90.5985,-189.1892 84.6628,-180.4133 83.8302,-190.9753 90.5985,-189.1892"/>
</g>
<!-- 5&#45;&gt;1 -->
<g id="edge4" class="edge">
<title>5&#45;&gt;1</title>
<path fill="none" stroke="#c0c0c0" stroke-width="2" d="M79.8037,-143.8314C79.8037,-136.131 79.8037,-126.9743 79.8037,-118.4166"/>
<polygon fill="#c0c0c0" stroke="#c0c0c0" stroke-width="2" points="83.3038,-118.4132 79.8037,-108.4133 76.3038,-118.4133 83.3038,-118.4132"/>
</g>
<!-- 6 -->
<g id="node7" class="node">
<title>6</title>
<path fill="none" stroke="#d85656" stroke-width="2" d="M185.8037,-324C185.8037,-324 155.8037,-324 155.8037,-324 149.8037,-324 143.8037,-318 143.8037,-312 143.8037,-312 143.8037,-300 143.8037,-300 143.8037,-294 149.8037,-288 155.8037,-288 155.8037,-288 185.8037,-288 185.8037,-288 191.8037,-288 197.8037,-294 197.8037,-300 197.8037,-300 197.8037,-312 197.8037,-312 197.8037,-318 191.8037,-324 185.8037,-324"/>
<text text-anchor="middle" x="170.8037" y="-303.5" font-family="sans" font-size="10.00" fill="#000000">norm</text>
</g>
<!-- 6&#45;&gt;2 -->
<g id="edge6" class="edge">
<title>6&#45;&gt;2</title>
<path fill="none" stroke="#c0c0c0" stroke-width="2" d="M177.1362,-287.7623C185.7396,-262.9846 201.1956,-218.4714 211.2225,-189.5939"/>
<polygon fill="#c0c0c0" stroke="#c0c0c0" stroke-width="2" points="214.5488,-190.6844 214.5226,-180.0896 207.936,-188.3883 214.5488,-190.6844"/>
</g>
<!-- 6&#45;&gt;3 -->
<g id="edge7" class="edge">
<title>6&#45;&gt;3</title>
<path fill="none" stroke="#c0c0c0" stroke-width="2" d="M195.8197,-287.9311C223.9279,-265.9944 268.1847,-226.1538 287.8037,-180 296.0942,-160.4966 297.0126,-136.4426 296.0386,-118.1101"/>
<polygon fill="#c0c0c0" stroke="#c0c0c0" stroke-width="2" points="299.5228,-117.7666 295.2878,-108.055 292.5422,-118.2879 299.5228,-117.7666"/>
</g>
<!-- 6&#45;&gt;4 -->
<g id="edge9" class="edge">
<title>6&#45;&gt;4</title>
<path fill="none" stroke="#c0c0c0" stroke-width="2" d="M152.6351,-287.8314C144.0885,-279.2848 133.748,-268.9443 124.4235,-259.6198"/>
<polygon fill="#c0c0c0" stroke="#c0c0c0" stroke-width="2" points="126.7629,-257.0095 117.217,-252.4133 121.8132,-261.9592 126.7629,-257.0095"/>
</g>
<!-- 7 -->
<g id="node8" class="node">
<title>7</title>
<path fill="none" stroke="#56d86b" stroke-width="2" d="M145.8037,-396C145.8037,-396 115.8037,-396 115.8037,-396 109.8037,-396 103.8037,-390 103.8037,-384 103.8037,-384 103.8037,-372 103.8037,-372 103.8037,-366 109.8037,-360 115.8037,-360 115.8037,-360 145.8037,-360 145.8037,-360 151.8037,-360 157.8037,-366 157.8037,-372 157.8037,-372 157.8037,-384 157.8037,-384 157.8037,-390 151.8037,-396 145.8037,-396"/>
<text text-anchor="middle" x="130.8037" y="-375.5" font-family="sans" font-size="10.00" fill="#000000">trim</text>
</g>
<!-- 7&#45;&gt;4 -->
<g id="edge8" class="edge">
<title>7&#45;&gt;4</title>
<path fill="none" stroke="#c0c0c0" stroke-width="2" d="M126.7509,-359.7623C121.2688,-335.0928 111.4392,-290.8598 105.0199,-261.9731"/>
<polygon fill="#c0c0c0" stroke="#c0c0c0" stroke-width="2" points="108.4097,-261.0922 102.8236,-252.0896 101.5763,-262.6108 108.4097,-261.0922"/>
</g>
<!-- 7&#45;&gt;6 -->
<g id="edge11" class="edge">
<title>7&#45;&gt;6</title>
<path fill="none" stroke="#c0c0c0" stroke-width="2" d="M140.8974,-359.8314C145.3634,-351.7925 150.7112,-342.1666 155.6416,-333.2918"/>
<polygon fill="#c0c0c0" stroke="#c0c0c0" stroke-width="2" points="158.7772,-334.8546 160.5741,-324.4133 152.6581,-331.4551 158.7772,-334.8546"/>
</g>
<!-- 8 -->
<g id="node9" class="node">
<title>8</title>
<path fill="none" stroke="#d8b456" stroke-width="2" d="M145.8037,-468C145.8037,-468 115.8037,-468 115.8037,-468 109.8037,-468 103.8037,-462 103.8037,-456 103.8037,-456 103.8037,-444 103.8037,-444 103.8037,-438 109.8037,-432 115.8037,-432 115.8037,-432 145.8037,-432 145.8037,-432 151.8037,-432 157.8037,-438 157.8037,-444 157.8037,-444 157.8037,-456 157.8037,-456 157.8037,-462 151.8037,-468 145.8037,-468"/>
<text text-anchor="middle" x="130.8037" y="-447.5" font-family="sans" font-size="10.00" fill="#000000">decon</text>
</g>
<!-- 8&#45;&gt;7 -->
<g id="edge12" class="edge">
<title>8&#45;&gt;7</title>
<path fill="none" stroke="#c0c0c0" stroke-width="2" d="M130.8037,-431.8314C130.8037,-424.131 130.8037,-414.9743 130.8037,-406.4166"/>
<polygon fill="#c0c0c0" stroke="#c0c0c0" stroke-width="2" points="134.3038,-406.4132 130.8037,-396.4133 127.3038,-406.4133 134.3038,-406.4132"/>
</g>
<!-- 9 -->
<g id="node10" class="node">
<title>9</title>
<path fill="none" stroke="#56d8c9" stroke-width="2" d="M145.8037,-540C145.8037,-540 115.8037,-540 115.8037,-540 109.8037,-540 103.8037,-534 103.8037,-528 103.8037,-528 103.8037,-516 103.8037,-516 103.8037,-510 109.8037,-504 115.8037,-504 115.8037,-504 145.8037,-504 145.8037,-504 151.8037,-504 157.8037,-510 157.8037,-516 157.8037,-516 157.8037,-528 157.8037,-528 157.8037,-534 151.8037,-540 145.8037,-540"/>
<text text-anchor="middle" x="130.8037" y="-519.5" font-family="sans" font-size="10.00" fill="#000000">repair</text>
</g>
<!-- 9&#45;&gt;8 -->
<g id="edge13" class="edge">
<title>9&#45;&gt;8</title>
<path fill="none" stroke="#c0c0c0" stroke-width="2" d="M130.8037,-503.8314C130.8037,-496.131 130.8037,-486.9743 130.8037,-478.4166"/>
<polygon fill="#c0c0c0" stroke="#c0c0c0" stroke-width="2" points="134.3038,-478.4132 130.8037,-468.4133 127.3038,-478.4133 134.3038,-478.4132"/>
</g>
<!-- 10 -->
<g id="node11" class="node">
<title>10</title>
<path fill="none" stroke="#9fd856" stroke-width="2" d="M164.3037,-612C164.3037,-612 97.3037,-612 97.3037,-612 91.3037,-612 85.3037,-606 85.3037,-600 85.3037,-600 85.3037,-588 85.3037,-588 85.3037,-582 91.3037,-576 97.3037,-576 97.3037,-576 164.3037,-576 164.3037,-576 170.3037,-576 176.3037,-582 176.3037,-588 176.3037,-588 176.3037,-600 176.3037,-600 176.3037,-606 170.3037,-612 164.3037,-612"/>
<text text-anchor="middle" x="130.8037" y="-591.5" font-family="sans" font-size="10.00" fill="#000000">combine_reads</text>
</g>
<!-- 10&#45;&gt;9 -->
<g id="edge14" class="edge">
<title>10&#45;&gt;9</title>
<path fill="none" stroke="#c0c0c0" stroke-width="2" d="M130.8037,-575.8314C130.8037,-568.131 130.8037,-558.9743 130.8037,-550.4166"/>
<polygon fill="#c0c0c0" stroke="#c0c0c0" stroke-width="2" points="134.3038,-550.4132 130.8037,-540.4133 127.3038,-550.4133 134.3038,-550.4132"/>
</g>
</g>
</svg>
