<?xml version="1.0" encoding="UTF-8" standalone="no"?>
<!DOCTYPE svg PUBLIC "-//W3C//DTD SVG 1.1//EN"
 "http://www.w3.org/Graphics/SVG/1.1/DTD/svg11.dtd">
<!-- Generated by graphviz version 2.40.1 (20161225.0304)
 -->
<!-- Title: snakemake_dag Pages: 1 -->
<svg width="2083pt" height="585pt"
 viewBox="0.00 0.00 2083.08 585.00" xmlns="http://www.w3.org/2000/svg" xmlns:xlink="http://www.w3.org/1999/xlink">
<g id="graph0" class="graph" transform="scale(1 1) rotate(0) translate(4 581)">
<title>snakemake_dag</title>
<polygon fill="#ffffff" stroke="transparent" points="-4,4 -4,-581 2079.0807,-581 2079.0807,4 -4,4"/>
<!-- 1 -->
<g id="node1" class="node">
<title>1</title>
<path fill="none" stroke="#d85656" stroke-width="2" d="M64.0807,-116C64.0807,-116 14.0807,-116 14.0807,-116 8.0807,-116 2.0807,-110 2.0807,-104 2.0807,-104 2.0807,-92 2.0807,-92 2.0807,-86 8.0807,-80 14.0807,-80 14.0807,-80 64.0807,-80 64.0807,-80 70.0807,-80 76.0807,-86 76.0807,-92 76.0807,-92 76.0807,-104 76.0807,-104 76.0807,-110 70.0807,-116 64.0807,-116"/>
<text text-anchor="middle" x="39.0807" y="-95.5" font-family="sans" font-size="10.00" fill="#000000">meraculous</text>
</g>
<!-- 2 -->
<g id="node2" class="node">
<title>2</title>
<path fill="none" stroke="#d85656" stroke-width="2" d="M249.0807,-116C249.0807,-116 199.0807,-116 199.0807,-116 193.0807,-116 187.0807,-110 187.0807,-104 187.0807,-104 187.0807,-92 187.0807,-92 187.0807,-86 193.0807,-80 199.0807,-80 199.0807,-80 249.0807,-80 249.0807,-80 255.0807,-80 261.0807,-86 261.0807,-92 261.0807,-92 261.0807,-104 261.0807,-104 261.0807,-110 255.0807,-116 249.0807,-116"/>
<text text-anchor="middle" x="224.0807" y="-95.5" font-family="sans" font-size="10.00" fill="#000000">meraculous</text>
</g>
<!-- 3 -->
<g id="node3" class="node">
<title>3</title>
<path fill="none" stroke="#d85656" stroke-width="2" d="M435.0807,-116C435.0807,-116 385.0807,-116 385.0807,-116 379.0807,-116 373.0807,-110 373.0807,-104 373.0807,-104 373.0807,-92 373.0807,-92 373.0807,-86 379.0807,-80 385.0807,-80 385.0807,-80 435.0807,-80 435.0807,-80 441.0807,-80 447.0807,-86 447.0807,-92 447.0807,-92 447.0807,-104 447.0807,-104 447.0807,-110 441.0807,-116 435.0807,-116"/>
<text text-anchor="middle" x="410.0807" y="-95.5" font-family="sans" font-size="10.00" fill="#000000">meraculous</text>
</g>
<!-- 4 -->
<g id="node4" class="node">
<title>4</title>
<path fill="none" stroke="#d85656" stroke-width="2" d="M621.0807,-116C621.0807,-116 571.0807,-116 571.0807,-116 565.0807,-116 559.0807,-110 559.0807,-104 559.0807,-104 559.0807,-92 559.0807,-92 559.0807,-86 565.0807,-80 571.0807,-80 571.0807,-80 621.0807,-80 621.0807,-80 627.0807,-80 633.0807,-86 633.0807,-92 633.0807,-92 633.0807,-104 633.0807,-104 633.0807,-110 627.0807,-116 621.0807,-116"/>
<text text-anchor="middle" x="596.0807" y="-95.5" font-family="sans" font-size="10.00" fill="#000000">meraculous</text>
</g>
<!-- 5 -->
<g id="node5" class="node">
<title>5</title>
<path fill="none" stroke="#d85656" stroke-width="2" d="M807.0807,-116C807.0807,-116 757.0807,-116 757.0807,-116 751.0807,-116 745.0807,-110 745.0807,-104 745.0807,-104 745.0807,-92 745.0807,-92 745.0807,-86 751.0807,-80 757.0807,-80 757.0807,-80 807.0807,-80 807.0807,-80 813.0807,-80 819.0807,-86 819.0807,-92 819.0807,-92 819.0807,-104 819.0807,-104 819.0807,-110 813.0807,-116 807.0807,-116"/>
<text text-anchor="middle" x="782.0807" y="-95.5" font-family="sans" font-size="10.00" fill="#000000">meraculous</text>
</g>
<!-- 6 -->
<g id="node6" class="node">
<title>6</title>
<path fill="none" stroke="#d85656" stroke-width="2" d="M947.0807,-116C947.0807,-116 897.0807,-116 897.0807,-116 891.0807,-116 885.0807,-110 885.0807,-104 885.0807,-104 885.0807,-92 885.0807,-92 885.0807,-86 891.0807,-80 897.0807,-80 897.0807,-80 947.0807,-80 947.0807,-80 953.0807,-80 959.0807,-86 959.0807,-92 959.0807,-92 959.0807,-104 959.0807,-104 959.0807,-110 953.0807,-116 947.0807,-116"/>
<text text-anchor="middle" x="922.0807" y="-95.5" font-family="sans" font-size="10.00" fill="#000000">meraculous</text>
</g>
<!-- 7 -->
<g id="node7" class="node">
<title>7</title>
<path fill="none" stroke="#d85656" stroke-width="2" d="M1059.0807,-36C1059.0807,-36 1009.0807,-36 1009.0807,-36 1003.0807,-36 997.0807,-30 997.0807,-24 997.0807,-24 997.0807,-12 997.0807,-12 997.0807,-6 1003.0807,0 1009.0807,0 1009.0807,0 1059.0807,0 1059.0807,0 1065.0807,0 1071.0807,-6 1071.0807,-12 1071.0807,-12 1071.0807,-24 1071.0807,-24 1071.0807,-30 1065.0807,-36 1059.0807,-36"/>
<text text-anchor="middle" x="1034.0807" y="-15.5" font-family="sans" font-size="10.00" fill="#000000">meraculous</text>
</g>
<!-- 8 -->
<g id="node8" class="node">
<title>8</title>
<path fill="none" stroke="#d85656" stroke-width="2" d="M1244.0807,-36C1244.0807,-36 1194.0807,-36 1194.0807,-36 1188.0807,-36 1182.0807,-30 1182.0807,-24 1182.0807,-24 1182.0807,-12 1182.0807,-12 1182.0807,-6 1188.0807,0 1194.0807,0 1194.0807,0 1244.0807,0 1244.0807,0 1250.0807,0 1256.0807,-6 1256.0807,-12 1256.0807,-12 1256.0807,-24 1256.0807,-24 1256.0807,-30 1250.0807,-36 1244.0807,-36"/>
<text text-anchor="middle" x="1219.0807" y="-15.5" font-family="sans" font-size="10.00" fill="#000000">meraculous</text>
</g>
<!-- 9 -->
<g id="node9" class="node">
<title>9</title>
<path fill="none" stroke="#d85656" stroke-width="2" d="M1430.0807,-36C1430.0807,-36 1380.0807,-36 1380.0807,-36 1374.0807,-36 1368.0807,-30 1368.0807,-24 1368.0807,-24 1368.0807,-12 1368.0807,-12 1368.0807,-6 1374.0807,0 1380.0807,0 1380.0807,0 1430.0807,0 1430.0807,0 1436.0807,0 1442.0807,-6 1442.0807,-12 1442.0807,-12 1442.0807,-24 1442.0807,-24 1442.0807,-30 1436.0807,-36 1430.0807,-36"/>
<text text-anchor="middle" x="1405.0807" y="-15.5" font-family="sans" font-size="10.00" fill="#000000">meraculous</text>
</g>
<!-- 10 -->
<g id="node10" class="node">
<title>10</title>
<path fill="none" stroke="#d85656" stroke-width="2" d="M1616.0807,-36C1616.0807,-36 1566.0807,-36 1566.0807,-36 1560.0807,-36 1554.0807,-30 1554.0807,-24 1554.0807,-24 1554.0807,-12 1554.0807,-12 1554.0807,-6 1560.0807,0 1566.0807,0 1566.0807,0 1616.0807,0 1616.0807,0 1622.0807,0 1628.0807,-6 1628.0807,-12 1628.0807,-12 1628.0807,-24 1628.0807,-24 1628.0807,-30 1622.0807,-36 1616.0807,-36"/>
<text text-anchor="middle" x="1591.0807" y="-15.5" font-family="sans" font-size="10.00" fill="#000000">meraculous</text>
</g>
<!-- 11 -->
<g id="node11" class="node">
<title>11</title>
<path fill="none" stroke="#d85656" stroke-width="2" d="M1802.0807,-36C1802.0807,-36 1752.0807,-36 1752.0807,-36 1746.0807,-36 1740.0807,-30 1740.0807,-24 1740.0807,-24 1740.0807,-12 1740.0807,-12 1740.0807,-6 1746.0807,0 1752.0807,0 1752.0807,0 1802.0807,0 1802.0807,0 1808.0807,0 1814.0807,-6 1814.0807,-12 1814.0807,-12 1814.0807,-24 1814.0807,-24 1814.0807,-30 1808.0807,-36 1802.0807,-36"/>
<text text-anchor="middle" x="1777.0807" y="-15.5" font-family="sans" font-size="10.00" fill="#000000">meraculous</text>
</g>
<!-- 12 -->
<g id="node12" class="node">
<title>12</title>
<path fill="none" stroke="#d85656" stroke-width="2" d="M1988.0807,-36C1988.0807,-36 1938.0807,-36 1938.0807,-36 1932.0807,-36 1926.0807,-30 1926.0807,-24 1926.0807,-24 1926.0807,-12 1926.0807,-12 1926.0807,-6 1932.0807,0 1938.0807,0 1938.0807,0 1988.0807,0 1988.0807,0 1994.0807,0 2000.0807,-6 2000.0807,-12 2000.0807,-12 2000.0807,-24 2000.0807,-24 2000.0807,-30 1994.0807,-36 1988.0807,-36"/>
<text text-anchor="middle" x="1963.0807" y="-15.5" font-family="sans" font-size="10.00" fill="#000000">meraculous</text>
</g>
<!-- 13 -->
<g id="node13" class="node">
<title>13</title>
<path fill="none" stroke="#d88556" stroke-width="2" d="M1250.0807,-204C1250.0807,-204 1158.0807,-204 1158.0807,-204 1152.0807,-204 1146.0807,-198 1146.0807,-192 1146.0807,-192 1146.0807,-180 1146.0807,-180 1146.0807,-174 1152.0807,-168 1158.0807,-168 1158.0807,-168 1250.0807,-168 1250.0807,-168 1256.0807,-168 1262.0807,-174 1262.0807,-180 1262.0807,-180 1262.0807,-192 1262.0807,-192 1262.0807,-198 1256.0807,-204 1250.0807,-204"/>
<text text-anchor="middle" x="1204.0807" y="-183.5" font-family="sans" font-size="10.00" fill="#000000">plot_kmer_coverage</text>
</g>
<!-- 14 -->
<g id="node14" class="node">
<title>14</title>
<path fill="none" stroke="#56b1d8" stroke-width="2" d="M1327.5807,-204C1327.5807,-204 1292.5807,-204 1292.5807,-204 1286.5807,-204 1280.5807,-198 1280.5807,-192 1280.5807,-192 1280.5807,-180 1280.5807,-180 1280.5807,-174 1286.5807,-168 1292.5807,-168 1292.5807,-168 1327.5807,-168 1327.5807,-168 1333.5807,-168 1339.5807,-174 1339.5807,-180 1339.5807,-180 1339.5807,-192 1339.5807,-192 1339.5807,-198 1333.5807,-204 1327.5807,-204"/>
<text text-anchor="middle" x="1310.0807" y="-183.5" font-family="sans" font-size="10.00" fill="#000000">plot_kha</text>
</g>
<!-- 15 -->
<g id="node15" class="node">
<title>15</title>
<path fill="none" stroke="#70d856" stroke-width="2" d="M585.5807,-289C585.5807,-289 514.5807,-289 514.5807,-289 508.5807,-289 502.5807,-283 502.5807,-277 502.5807,-277 502.5807,-260 502.5807,-260 502.5807,-254 508.5807,-248 514.5807,-248 514.5807,-248 585.5807,-248 585.5807,-248 591.5807,-248 597.5807,-254 597.5807,-260 597.5807,-260 597.5807,-277 597.5807,-277 597.5807,-283 591.5807,-289 585.5807,-289"/>
<text text-anchor="middle" x="550.0807" y="-277" font-family="sans" font-size="10.00" fill="#000000">tmp_gunzip</text>
<text text-anchor="middle" x="550.0807" y="-266" font-family="sans" font-size="10.00" fill="#000000">file: asw.fastq</text>
<text text-anchor="middle" x="550.0807" y="-255" font-family="sans" font-size="10.00" fill="#000000">path: 010_reads</text>
</g>
<!-- 15&#45;&gt;1 -->
<g id="edge1" class="edge">
<title>15&#45;&gt;1</title>
<path fill="none" stroke="#c0c0c0" stroke-width="2" d="M502.4363,-267.0745C376.7691,-262.8265 43.7058,-248.2237 11.0807,-212 -10.4197,-188.128 5.1764,-150.4283 20.3349,-124.9828"/>
<polygon fill="#c0c0c0" stroke="#c0c0c0" stroke-width="2" points="23.4873,-126.5433 25.8303,-116.2108 17.5552,-122.827 23.4873,-126.5433"/>
</g>
<!-- 15&#45;&gt;2 -->
<g id="edge3" class="edge">
<title>15&#45;&gt;2</title>
<path fill="none" stroke="#c0c0c0" stroke-width="2" d="M502.4955,-264.2935C410.7538,-255.7011 216.6869,-234.9938 197.0807,-212 176.2775,-187.6023 191.333,-150.0244 205.9731,-124.7499"/>
<polygon fill="#c0c0c0" stroke="#c0c0c0" stroke-width="2" points="209.0646,-126.4026 211.2809,-116.0422 203.0875,-122.7593 209.0646,-126.4026"/>
</g>
<!-- 15&#45;&gt;3 -->
<g id="edge5" class="edge">
<title>15&#45;&gt;3</title>
<path fill="none" stroke="#c0c0c0" stroke-width="2" d="M502.4306,-258.8279C458.2506,-248.7786 397.2641,-231.7717 383.0807,-212 364.6839,-186.3547 378.5102,-149.9131 392.2546,-125.1864"/>
<polygon fill="#c0c0c0" stroke="#c0c0c0" stroke-width="2" points="395.409,-126.7263 397.4509,-116.3301 389.3715,-123.1839 395.409,-126.7263"/>
</g>
<!-- 15&#45;&gt;4 -->
<g id="edge7" class="edge">
<title>15&#45;&gt;4</title>
<path fill="none" stroke="#c0c0c0" stroke-width="2" d="M552.2283,-247.7652C554.8575,-225.676 560.1064,-189.8514 569.0807,-160 572.6002,-148.293 577.7235,-135.8524 582.5636,-125.2116"/>
<polygon fill="#c0c0c0" stroke="#c0c0c0" stroke-width="2" points="585.7978,-126.5582 586.8749,-116.0182 579.4601,-123.586 585.7978,-126.5582"/>
</g>
<!-- 15&#45;&gt;5 -->
<g id="edge9" class="edge">
<title>15&#45;&gt;5</title>
<path fill="none" stroke="#c0c0c0" stroke-width="2" d="M597.7292,-261.7668C633.8076,-254.6068 682.8357,-240.23 717.0807,-212 731.7539,-199.9042 754.9297,-155.1089 769.28,-125.4032"/>
<polygon fill="#c0c0c0" stroke="#c0c0c0" stroke-width="2" points="772.4529,-126.881 773.6071,-116.3492 766.1371,-123.8625 772.4529,-126.881"/>
</g>
<!-- 15&#45;&gt;6 -->
<g id="edge11" class="edge">
<title>15&#45;&gt;6</title>
<path fill="none" stroke="#c0c0c0" stroke-width="2" d="M597.6487,-267.5351C683.8469,-264.7507 860.8694,-253.9404 903.0807,-212 925.3483,-189.8753 927.4956,-152.2175 925.7981,-126.2743"/>
<polygon fill="#c0c0c0" stroke="#c0c0c0" stroke-width="2" points="929.2827,-125.9445 924.9201,-116.2895 922.3096,-126.5577 929.2827,-125.9445"/>
</g>
<!-- 16 -->
<g id="node16" class="node">
<title>16</title>
<path fill="none" stroke="#56d86b" stroke-width="2" d="M138.0807,-212C138.0807,-212 32.0807,-212 32.0807,-212 26.0807,-212 20.0807,-206 20.0807,-200 20.0807,-200 20.0807,-172 20.0807,-172 20.0807,-166 26.0807,-160 32.0807,-160 32.0807,-160 138.0807,-160 138.0807,-160 144.0807,-160 150.0807,-166 150.0807,-172 150.0807,-172 150.0807,-200 150.0807,-200 150.0807,-206 144.0807,-212 138.0807,-212"/>
<text text-anchor="middle" x="85.0807" y="-200" font-family="sans" font-size="10.00" fill="#000000">write_meraculous_conf</text>
<text text-anchor="middle" x="85.0807" y="-189" font-family="sans" font-size="10.00" fill="#000000">diplo: 1</text>
<text text-anchor="middle" x="85.0807" y="-178" font-family="sans" font-size="10.00" fill="#000000">k: 61</text>
<text text-anchor="middle" x="85.0807" y="-167" font-family="sans" font-size="10.00" fill="#000000">read_set: raw</text>
</g>
<!-- 15&#45;&gt;16 -->
<g id="edge28" class="edge">
<title>15&#45;&gt;16</title>
<path fill="none" stroke="#c0c0c0" stroke-width="2" d="M502.3441,-264.1899C428.9336,-256.9629 284.2181,-240.3378 164.0807,-212 162.8159,-211.7017 161.5424,-211.3922 160.2624,-211.0727"/>
<polygon fill="#c0c0c0" stroke="#c0c0c0" stroke-width="2" points="160.9201,-207.6262 150.357,-208.4464 159.126,-214.3924 160.9201,-207.6262"/>
</g>
<!-- 17 -->
<g id="node17" class="node">
<title>17</title>
<path fill="none" stroke="#56d86b" stroke-width="2" d="M324.0807,-212C324.0807,-212 218.0807,-212 218.0807,-212 212.0807,-212 206.0807,-206 206.0807,-200 206.0807,-200 206.0807,-172 206.0807,-172 206.0807,-166 212.0807,-160 218.0807,-160 218.0807,-160 324.0807,-160 324.0807,-160 330.0807,-160 336.0807,-166 336.0807,-172 336.0807,-172 336.0807,-200 336.0807,-200 336.0807,-206 330.0807,-212 324.0807,-212"/>
<text text-anchor="middle" x="271.0807" y="-200" font-family="sans" font-size="10.00" fill="#000000">write_meraculous_conf</text>
<text text-anchor="middle" x="271.0807" y="-189" font-family="sans" font-size="10.00" fill="#000000">diplo: 1</text>
<text text-anchor="middle" x="271.0807" y="-178" font-family="sans" font-size="10.00" fill="#000000">k: 71</text>
<text text-anchor="middle" x="271.0807" y="-167" font-family="sans" font-size="10.00" fill="#000000">read_set: raw</text>
</g>
<!-- 15&#45;&gt;17 -->
<g id="edge29" class="edge">
<title>15&#45;&gt;17</title>
<path fill="none" stroke="#c0c0c0" stroke-width="2" d="M502.2295,-255.5984C461.6073,-244.4987 401.8387,-227.8201 350.0807,-212 348.6567,-211.5648 347.2193,-211.1224 345.7718,-210.6742"/>
<polygon fill="#c0c0c0" stroke="#c0c0c0" stroke-width="2" points="346.697,-207.2963 336.1079,-207.6447 344.6031,-213.9758 346.697,-207.2963"/>
</g>
<!-- 18 -->
<g id="node18" class="node">
<title>18</title>
<path fill="none" stroke="#56d86b" stroke-width="2" d="M510.0807,-212C510.0807,-212 404.0807,-212 404.0807,-212 398.0807,-212 392.0807,-206 392.0807,-200 392.0807,-200 392.0807,-172 392.0807,-172 392.0807,-166 398.0807,-160 404.0807,-160 404.0807,-160 510.0807,-160 510.0807,-160 516.0807,-160 522.0807,-166 522.0807,-172 522.0807,-172 522.0807,-200 522.0807,-200 522.0807,-206 516.0807,-212 510.0807,-212"/>
<text text-anchor="middle" x="457.0807" y="-200" font-family="sans" font-size="10.00" fill="#000000">write_meraculous_conf</text>
<text text-anchor="middle" x="457.0807" y="-189" font-family="sans" font-size="10.00" fill="#000000">diplo: 1</text>
<text text-anchor="middle" x="457.0807" y="-178" font-family="sans" font-size="10.00" fill="#000000">k: 81</text>
<text text-anchor="middle" x="457.0807" y="-167" font-family="sans" font-size="10.00" fill="#000000">read_set: raw</text>
</g>
<!-- 15&#45;&gt;18 -->
<g id="edge30" class="edge">
<title>15&#45;&gt;18</title>
<path fill="none" stroke="#c0c0c0" stroke-width="2" d="M526.6129,-247.6818C516.8271,-239.0008 505.2207,-228.7048 494.3215,-219.0362"/>
<polygon fill="#c0c0c0" stroke="#c0c0c0" stroke-width="2" points="496.3499,-216.1568 486.5464,-212.1389 491.7045,-221.3934 496.3499,-216.1568"/>
</g>
<!-- 19 -->
<g id="node19" class="node">
<title>19</title>
<path fill="none" stroke="#56d86b" stroke-width="2" d="M696.0807,-212C696.0807,-212 590.0807,-212 590.0807,-212 584.0807,-212 578.0807,-206 578.0807,-200 578.0807,-200 578.0807,-172 578.0807,-172 578.0807,-166 584.0807,-160 590.0807,-160 590.0807,-160 696.0807,-160 696.0807,-160 702.0807,-160 708.0807,-166 708.0807,-172 708.0807,-172 708.0807,-200 708.0807,-200 708.0807,-206 702.0807,-212 696.0807,-212"/>
<text text-anchor="middle" x="643.0807" y="-200" font-family="sans" font-size="10.00" fill="#000000">write_meraculous_conf</text>
<text text-anchor="middle" x="643.0807" y="-189" font-family="sans" font-size="10.00" fill="#000000">diplo: 2</text>
<text text-anchor="middle" x="643.0807" y="-178" font-family="sans" font-size="10.00" fill="#000000">k: 61</text>
<text text-anchor="middle" x="643.0807" y="-167" font-family="sans" font-size="10.00" fill="#000000">read_set: raw</text>
</g>
<!-- 15&#45;&gt;19 -->
<g id="edge31" class="edge">
<title>15&#45;&gt;19</title>
<path fill="none" stroke="#c0c0c0" stroke-width="2" d="M573.5486,-247.6818C583.3343,-239.0008 594.9408,-228.7048 605.8399,-219.0362"/>
<polygon fill="#c0c0c0" stroke="#c0c0c0" stroke-width="2" points="608.4569,-221.3934 613.615,-212.1389 603.8116,-216.1568 608.4569,-221.3934"/>
</g>
<!-- 20 -->
<g id="node20" class="node">
<title>20</title>
<path fill="none" stroke="#56d86b" stroke-width="2" d="M882.0807,-212C882.0807,-212 776.0807,-212 776.0807,-212 770.0807,-212 764.0807,-206 764.0807,-200 764.0807,-200 764.0807,-172 764.0807,-172 764.0807,-166 770.0807,-160 776.0807,-160 776.0807,-160 882.0807,-160 882.0807,-160 888.0807,-160 894.0807,-166 894.0807,-172 894.0807,-172 894.0807,-200 894.0807,-200 894.0807,-206 888.0807,-212 882.0807,-212"/>
<text text-anchor="middle" x="829.0807" y="-200" font-family="sans" font-size="10.00" fill="#000000">write_meraculous_conf</text>
<text text-anchor="middle" x="829.0807" y="-189" font-family="sans" font-size="10.00" fill="#000000">diplo: 2</text>
<text text-anchor="middle" x="829.0807" y="-178" font-family="sans" font-size="10.00" fill="#000000">k: 71</text>
<text text-anchor="middle" x="829.0807" y="-167" font-family="sans" font-size="10.00" fill="#000000">read_set: raw</text>
</g>
<!-- 15&#45;&gt;20 -->
<g id="edge32" class="edge">
<title>15&#45;&gt;20</title>
<path fill="none" stroke="#c0c0c0" stroke-width="2" d="M597.932,-255.5984C638.5541,-244.4987 698.3228,-227.8201 750.0807,-212 751.5047,-211.5648 752.9422,-211.1224 754.3897,-210.6742"/>
<polygon fill="#c0c0c0" stroke="#c0c0c0" stroke-width="2" points="755.5584,-213.9758 764.0535,-207.6447 753.4644,-207.2963 755.5584,-213.9758"/>
</g>
<!-- 21 -->
<g id="node21" class="node">
<title>21</title>
<path fill="none" stroke="#56d86b" stroke-width="2" d="M1068.0807,-212C1068.0807,-212 962.0807,-212 962.0807,-212 956.0807,-212 950.0807,-206 950.0807,-200 950.0807,-200 950.0807,-172 950.0807,-172 950.0807,-166 956.0807,-160 962.0807,-160 962.0807,-160 1068.0807,-160 1068.0807,-160 1074.0807,-160 1080.0807,-166 1080.0807,-172 1080.0807,-172 1080.0807,-200 1080.0807,-200 1080.0807,-206 1074.0807,-212 1068.0807,-212"/>
<text text-anchor="middle" x="1015.0807" y="-200" font-family="sans" font-size="10.00" fill="#000000">write_meraculous_conf</text>
<text text-anchor="middle" x="1015.0807" y="-189" font-family="sans" font-size="10.00" fill="#000000">diplo: 2</text>
<text text-anchor="middle" x="1015.0807" y="-178" font-family="sans" font-size="10.00" fill="#000000">k: 81</text>
<text text-anchor="middle" x="1015.0807" y="-167" font-family="sans" font-size="10.00" fill="#000000">read_set: raw</text>
</g>
<!-- 15&#45;&gt;21 -->
<g id="edge33" class="edge">
<title>15&#45;&gt;21</title>
<path fill="none" stroke="#c0c0c0" stroke-width="2" d="M597.8174,-264.1899C671.2278,-256.9629 815.9434,-240.3378 936.0807,-212 937.3455,-211.7017 938.619,-211.3922 939.8991,-211.0727"/>
<polygon fill="#c0c0c0" stroke="#c0c0c0" stroke-width="2" points="941.0354,-214.3924 949.8045,-208.4464 939.2414,-207.6262 941.0354,-214.3924"/>
</g>
<!-- 16&#45;&gt;1 -->
<g id="edge2" class="edge">
<title>16&#45;&gt;1</title>
<path fill="none" stroke="#c0c0c0" stroke-width="2" d="M71.2792,-159.5971C65.589,-148.7115 58.9995,-136.1055 53.2696,-125.1439"/>
<polygon fill="#c0c0c0" stroke="#c0c0c0" stroke-width="2" points="56.234,-123.2597 48.4997,-116.0188 50.0305,-126.5025 56.234,-123.2597"/>
</g>
<!-- 17&#45;&gt;2 -->
<g id="edge4" class="edge">
<title>17&#45;&gt;2</title>
<path fill="none" stroke="#c0c0c0" stroke-width="2" d="M256.9792,-159.5971C251.1653,-148.7115 244.4326,-136.1055 238.578,-125.1439"/>
<polygon fill="#c0c0c0" stroke="#c0c0c0" stroke-width="2" points="241.5028,-123.1907 233.7044,-116.0188 235.3283,-126.4885 241.5028,-123.1907"/>
</g>
<!-- 18&#45;&gt;3 -->
<g id="edge6" class="edge">
<title>18&#45;&gt;3</title>
<path fill="none" stroke="#c0c0c0" stroke-width="2" d="M442.9792,-159.5971C437.1653,-148.7115 430.4326,-136.1055 424.578,-125.1439"/>
<polygon fill="#c0c0c0" stroke="#c0c0c0" stroke-width="2" points="427.5028,-123.1907 419.7044,-116.0188 421.3283,-126.4885 427.5028,-123.1907"/>
</g>
<!-- 19&#45;&gt;4 -->
<g id="edge8" class="edge">
<title>19&#45;&gt;4</title>
<path fill="none" stroke="#c0c0c0" stroke-width="2" d="M628.9792,-159.5971C623.1653,-148.7115 616.4326,-136.1055 610.578,-125.1439"/>
<polygon fill="#c0c0c0" stroke="#c0c0c0" stroke-width="2" points="613.5028,-123.1907 605.7044,-116.0188 607.3283,-126.4885 613.5028,-123.1907"/>
</g>
<!-- 20&#45;&gt;5 -->
<g id="edge10" class="edge">
<title>20&#45;&gt;5</title>
<path fill="none" stroke="#c0c0c0" stroke-width="2" d="M814.9792,-159.5971C809.1653,-148.7115 802.4326,-136.1055 796.578,-125.1439"/>
<polygon fill="#c0c0c0" stroke="#c0c0c0" stroke-width="2" points="799.5028,-123.1907 791.7044,-116.0188 793.3283,-126.4885 799.5028,-123.1907"/>
</g>
<!-- 21&#45;&gt;6 -->
<g id="edge12" class="edge">
<title>21&#45;&gt;6</title>
<path fill="none" stroke="#c0c0c0" stroke-width="2" d="M987.4295,-159.8354C975.2192,-148.2816 960.9218,-134.7528 948.8187,-123.3005"/>
<polygon fill="#c0c0c0" stroke="#c0c0c0" stroke-width="2" points="950.8954,-120.447 941.2262,-116.1161 946.0842,-125.5316 950.8954,-120.447"/>
</g>
<!-- 22 -->
<g id="node22" class="node">
<title>22</title>
<path fill="none" stroke="#70d856" stroke-width="2" d="M1486.5807,-206.5C1486.5807,-206.5 1417.5807,-206.5 1417.5807,-206.5 1411.5807,-206.5 1405.5807,-200.5 1405.5807,-194.5 1405.5807,-194.5 1405.5807,-177.5 1405.5807,-177.5 1405.5807,-171.5 1411.5807,-165.5 1417.5807,-165.5 1417.5807,-165.5 1486.5807,-165.5 1486.5807,-165.5 1492.5807,-165.5 1498.5807,-171.5 1498.5807,-177.5 1498.5807,-177.5 1498.5807,-194.5 1498.5807,-194.5 1498.5807,-200.5 1492.5807,-206.5 1486.5807,-206.5"/>
<text text-anchor="middle" x="1452.0807" y="-194.5" font-family="sans" font-size="10.00" fill="#000000">tmp_gunzip</text>
<text text-anchor="middle" x="1452.0807" y="-183.5" font-family="sans" font-size="10.00" fill="#000000">file: asw.fq</text>
<text text-anchor="middle" x="1452.0807" y="-172.5" font-family="sans" font-size="10.00" fill="#000000">path: 020_norm</text>
</g>
<!-- 22&#45;&gt;7 -->
<g id="edge13" class="edge">
<title>22&#45;&gt;7</title>
<path fill="none" stroke="#c0c0c0" stroke-width="2" d="M1405.5272,-172.8821C1387.6795,-168.2439 1367.0494,-163.3524 1348.0807,-160 1272.8271,-146.7001 1057.2112,-180.7951 1006.0807,-124 986.4319,-102.1743 1000.638,-68.1538 1015.0282,-44.5658"/>
<polygon fill="#c0c0c0" stroke="#c0c0c0" stroke-width="2" points="1018.0178,-46.3877 1020.4821,-36.0834 1012.1298,-42.6018 1018.0178,-46.3877"/>
</g>
<!-- 22&#45;&gt;8 -->
<g id="edge15" class="edge">
<title>22&#45;&gt;8</title>
<path fill="none" stroke="#c0c0c0" stroke-width="2" d="M1405.5311,-174.1708C1387.5932,-169.6627 1366.9004,-164.5236 1348.0807,-160 1278.8957,-143.3704 1236.3787,-179.6848 1192.0807,-124 1174.0246,-101.3026 1187.1224,-67.9599 1200.6285,-44.7521"/>
<polygon fill="#c0c0c0" stroke="#c0c0c0" stroke-width="2" points="1203.6961,-46.4453 1205.9567,-36.0944 1197.7346,-42.7764 1203.6961,-46.4453"/>
</g>
<!-- 22&#45;&gt;9 -->
<g id="edge17" class="edge">
<title>22&#45;&gt;9</title>
<path fill="none" stroke="#c0c0c0" stroke-width="2" d="M1415.7157,-165.364C1401.1768,-155.0034 1386.0203,-141.01 1378.0807,-124 1366.2033,-98.5534 1377.0565,-67.1362 1388.3433,-45.1367"/>
<polygon fill="#c0c0c0" stroke="#c0c0c0" stroke-width="2" points="1391.4307,-46.7855 1393.142,-36.3298 1385.2839,-43.4362 1391.4307,-46.7855"/>
</g>
<!-- 22&#45;&gt;10 -->
<g id="edge19" class="edge">
<title>22&#45;&gt;10</title>
<path fill="none" stroke="#c0c0c0" stroke-width="2" d="M1481.0621,-165.2712C1495.5784,-154.0475 1512.8347,-139.3567 1526.0807,-124 1547.1775,-99.5417 1565.8178,-67.4633 1577.6663,-45.0275"/>
<polygon fill="#c0c0c0" stroke="#c0c0c0" stroke-width="2" points="1580.8235,-46.5421 1582.3158,-36.0528 1574.608,-43.322 1580.8235,-46.5421"/>
</g>
<!-- 22&#45;&gt;11 -->
<g id="edge21" class="edge">
<title>22&#45;&gt;11</title>
<path fill="none" stroke="#c0c0c0" stroke-width="2" d="M1498.8248,-179.2493C1564.103,-169.0941 1678.3644,-148.4494 1712.0807,-124 1726.3848,-113.6275 1748.9736,-73.1773 1763.403,-45.3572"/>
<polygon fill="#c0c0c0" stroke="#c0c0c0" stroke-width="2" points="1766.6941,-46.6093 1768.1396,-36.1136 1760.4643,-43.4171 1766.6941,-46.6093"/>
</g>
<!-- 22&#45;&gt;12 -->
<g id="edge23" class="edge">
<title>22&#45;&gt;12</title>
<path fill="none" stroke="#c0c0c0" stroke-width="2" d="M1498.8866,-184.482C1599.5947,-180.4303 1832.9926,-166.5902 1898.0807,-124 1912.9304,-114.2832 1935.5168,-73.3251 1949.7771,-45.2626"/>
<polygon fill="#c0c0c0" stroke="#c0c0c0" stroke-width="2" points="1952.9156,-46.8117 1954.2708,-36.3039 1946.6586,-43.6732 1952.9156,-46.8117"/>
</g>
<!-- 23 -->
<g id="node23" class="node">
<title>23</title>
<path fill="none" stroke="#56d86b" stroke-width="2" d="M1133.0807,-124C1133.0807,-124 1027.0807,-124 1027.0807,-124 1021.0807,-124 1015.0807,-118 1015.0807,-112 1015.0807,-112 1015.0807,-84 1015.0807,-84 1015.0807,-78 1021.0807,-72 1027.0807,-72 1027.0807,-72 1133.0807,-72 1133.0807,-72 1139.0807,-72 1145.0807,-78 1145.0807,-84 1145.0807,-84 1145.0807,-112 1145.0807,-112 1145.0807,-118 1139.0807,-124 1133.0807,-124"/>
<text text-anchor="middle" x="1080.0807" y="-112" font-family="sans" font-size="10.00" fill="#000000">write_meraculous_conf</text>
<text text-anchor="middle" x="1080.0807" y="-101" font-family="sans" font-size="10.00" fill="#000000">diplo: 1</text>
<text text-anchor="middle" x="1080.0807" y="-90" font-family="sans" font-size="10.00" fill="#000000">k: 61</text>
<text text-anchor="middle" x="1080.0807" y="-79" font-family="sans" font-size="10.00" fill="#000000">read_set: norm</text>
</g>
<!-- 22&#45;&gt;23 -->
<g id="edge35" class="edge">
<title>22&#45;&gt;23</title>
<path fill="none" stroke="#c0c0c0" stroke-width="2" d="M1405.3609,-173.7203C1387.4935,-169.182 1366.8933,-164.1397 1348.0807,-160 1264.5686,-141.623 1241.867,-145.4111 1159.0807,-124 1157.8226,-123.6746 1156.5553,-123.34 1155.2811,-122.9971"/>
<polygon fill="#c0c0c0" stroke="#c0c0c0" stroke-width="2" points="1155.9855,-119.5596 1145.4116,-120.2255 1154.0929,-126.2989 1155.9855,-119.5596"/>
</g>
<!-- 24 -->
<g id="node24" class="node">
<title>24</title>
<path fill="none" stroke="#56d86b" stroke-width="2" d="M1319.0807,-124C1319.0807,-124 1213.0807,-124 1213.0807,-124 1207.0807,-124 1201.0807,-118 1201.0807,-112 1201.0807,-112 1201.0807,-84 1201.0807,-84 1201.0807,-78 1207.0807,-72 1213.0807,-72 1213.0807,-72 1319.0807,-72 1319.0807,-72 1325.0807,-72 1331.0807,-78 1331.0807,-84 1331.0807,-84 1331.0807,-112 1331.0807,-112 1331.0807,-118 1325.0807,-124 1319.0807,-124"/>
<text text-anchor="middle" x="1266.0807" y="-112" font-family="sans" font-size="10.00" fill="#000000">write_meraculous_conf</text>
<text text-anchor="middle" x="1266.0807" y="-101" font-family="sans" font-size="10.00" fill="#000000">diplo: 1</text>
<text text-anchor="middle" x="1266.0807" y="-90" font-family="sans" font-size="10.00" fill="#000000">k: 71</text>
<text text-anchor="middle" x="1266.0807" y="-79" font-family="sans" font-size="10.00" fill="#000000">read_set: norm</text>
</g>
<!-- 22&#45;&gt;24 -->
<g id="edge36" class="edge">
<title>22&#45;&gt;24</title>
<path fill="none" stroke="#c0c0c0" stroke-width="2" d="M1408.472,-165.3679C1385.2337,-154.3734 1356.1993,-140.6368 1330.421,-128.4405"/>
<polygon fill="#c0c0c0" stroke="#c0c0c0" stroke-width="2" points="1331.624,-125.1378 1321.0878,-124.0248 1328.6303,-131.4653 1331.624,-125.1378"/>
</g>
<!-- 25 -->
<g id="node25" class="node">
<title>25</title>
<path fill="none" stroke="#56d86b" stroke-width="2" d="M1505.0807,-124C1505.0807,-124 1399.0807,-124 1399.0807,-124 1393.0807,-124 1387.0807,-118 1387.0807,-112 1387.0807,-112 1387.0807,-84 1387.0807,-84 1387.0807,-78 1393.0807,-72 1399.0807,-72 1399.0807,-72 1505.0807,-72 1505.0807,-72 1511.0807,-72 1517.0807,-78 1517.0807,-84 1517.0807,-84 1517.0807,-112 1517.0807,-112 1517.0807,-118 1511.0807,-124 1505.0807,-124"/>
<text text-anchor="middle" x="1452.0807" y="-112" font-family="sans" font-size="10.00" fill="#000000">write_meraculous_conf</text>
<text text-anchor="middle" x="1452.0807" y="-101" font-family="sans" font-size="10.00" fill="#000000">diplo: 1</text>
<text text-anchor="middle" x="1452.0807" y="-90" font-family="sans" font-size="10.00" fill="#000000">k: 81</text>
<text text-anchor="middle" x="1452.0807" y="-79" font-family="sans" font-size="10.00" fill="#000000">read_set: norm</text>
</g>
<!-- 22&#45;&gt;25 -->
<g id="edge37" class="edge">
<title>22&#45;&gt;25</title>
<path fill="none" stroke="#c0c0c0" stroke-width="2" d="M1452.0807,-165.1452C1452.0807,-155.9204 1452.0807,-144.798 1452.0807,-134.2827"/>
<polygon fill="#c0c0c0" stroke="#c0c0c0" stroke-width="2" points="1455.5808,-134.0624 1452.0807,-124.0624 1448.5808,-134.0625 1455.5808,-134.0624"/>
</g>
<!-- 26 -->
<g id="node26" class="node">
<title>26</title>
<path fill="none" stroke="#56d86b" stroke-width="2" d="M1691.0807,-124C1691.0807,-124 1585.0807,-124 1585.0807,-124 1579.0807,-124 1573.0807,-118 1573.0807,-112 1573.0807,-112 1573.0807,-84 1573.0807,-84 1573.0807,-78 1579.0807,-72 1585.0807,-72 1585.0807,-72 1691.0807,-72 1691.0807,-72 1697.0807,-72 1703.0807,-78 1703.0807,-84 1703.0807,-84 1703.0807,-112 1703.0807,-112 1703.0807,-118 1697.0807,-124 1691.0807,-124"/>
<text text-anchor="middle" x="1638.0807" y="-112" font-family="sans" font-size="10.00" fill="#000000">write_meraculous_conf</text>
<text text-anchor="middle" x="1638.0807" y="-101" font-family="sans" font-size="10.00" fill="#000000">diplo: 2</text>
<text text-anchor="middle" x="1638.0807" y="-90" font-family="sans" font-size="10.00" fill="#000000">k: 61</text>
<text text-anchor="middle" x="1638.0807" y="-79" font-family="sans" font-size="10.00" fill="#000000">read_set: norm</text>
</g>
<!-- 22&#45;&gt;26 -->
<g id="edge38" class="edge">
<title>22&#45;&gt;26</title>
<path fill="none" stroke="#c0c0c0" stroke-width="2" d="M1495.6895,-165.3679C1518.9278,-154.3734 1547.9621,-140.6368 1573.7405,-128.4405"/>
<polygon fill="#c0c0c0" stroke="#c0c0c0" stroke-width="2" points="1575.5312,-131.4653 1583.0737,-124.0248 1572.5375,-125.1378 1575.5312,-131.4653"/>
</g>
<!-- 27 -->
<g id="node27" class="node">
<title>27</title>
<path fill="none" stroke="#56d86b" stroke-width="2" d="M1877.0807,-124C1877.0807,-124 1771.0807,-124 1771.0807,-124 1765.0807,-124 1759.0807,-118 1759.0807,-112 1759.0807,-112 1759.0807,-84 1759.0807,-84 1759.0807,-78 1765.0807,-72 1771.0807,-72 1771.0807,-72 1877.0807,-72 1877.0807,-72 1883.0807,-72 1889.0807,-78 1889.0807,-84 1889.0807,-84 1889.0807,-112 1889.0807,-112 1889.0807,-118 1883.0807,-124 1877.0807,-124"/>
<text text-anchor="middle" x="1824.0807" y="-112" font-family="sans" font-size="10.00" fill="#000000">write_meraculous_conf</text>
<text text-anchor="middle" x="1824.0807" y="-101" font-family="sans" font-size="10.00" fill="#000000">diplo: 2</text>
<text text-anchor="middle" x="1824.0807" y="-90" font-family="sans" font-size="10.00" fill="#000000">k: 71</text>
<text text-anchor="middle" x="1824.0807" y="-79" font-family="sans" font-size="10.00" fill="#000000">read_set: norm</text>
</g>
<!-- 22&#45;&gt;27 -->
<g id="edge39" class="edge">
<title>22&#45;&gt;27</title>
<path fill="none" stroke="#c0c0c0" stroke-width="2" d="M1498.6333,-177.7783C1556.7451,-167.1429 1658.982,-147.2029 1745.0807,-124 1746.3355,-123.6619 1747.5996,-123.3154 1748.871,-122.9615"/>
<polygon fill="#c0c0c0" stroke="#c0c0c0" stroke-width="2" points="1750.0833,-126.2546 1758.7223,-120.1213 1748.1441,-119.5286 1750.0833,-126.2546"/>
</g>
<!-- 28 -->
<g id="node28" class="node">
<title>28</title>
<path fill="none" stroke="#56d86b" stroke-width="2" d="M2063.0807,-124C2063.0807,-124 1957.0807,-124 1957.0807,-124 1951.0807,-124 1945.0807,-118 1945.0807,-112 1945.0807,-112 1945.0807,-84 1945.0807,-84 1945.0807,-78 1951.0807,-72 1957.0807,-72 1957.0807,-72 2063.0807,-72 2063.0807,-72 2069.0807,-72 2075.0807,-78 2075.0807,-84 2075.0807,-84 2075.0807,-112 2075.0807,-112 2075.0807,-118 2069.0807,-124 2063.0807,-124"/>
<text text-anchor="middle" x="2010.0807" y="-112" font-family="sans" font-size="10.00" fill="#000000">write_meraculous_conf</text>
<text text-anchor="middle" x="2010.0807" y="-101" font-family="sans" font-size="10.00" fill="#000000">diplo: 2</text>
<text text-anchor="middle" x="2010.0807" y="-90" font-family="sans" font-size="10.00" fill="#000000">k: 81</text>
<text text-anchor="middle" x="2010.0807" y="-79" font-family="sans" font-size="10.00" fill="#000000">read_set: norm</text>
</g>
<!-- 22&#45;&gt;28 -->
<g id="edge40" class="edge">
<title>22&#45;&gt;28</title>
<path fill="none" stroke="#c0c0c0" stroke-width="2" d="M1498.8339,-182.8992C1585.1312,-176.5261 1774.8983,-159.4727 1931.0807,-124 1932.348,-123.7122 1933.6237,-123.4125 1934.9059,-123.102"/>
<polygon fill="#c0c0c0" stroke="#c0c0c0" stroke-width="2" points="1936.0218,-126.4286 1944.8243,-120.5323 1934.2661,-119.6523 1936.0218,-126.4286"/>
</g>
<!-- 23&#45;&gt;7 -->
<g id="edge14" class="edge">
<title>23&#45;&gt;7</title>
<path fill="none" stroke="#c0c0c0" stroke-width="2" d="M1065.0186,-71.805C1060.0926,-63.238 1054.6129,-53.7081 1049.6502,-45.0774"/>
<polygon fill="#c0c0c0" stroke="#c0c0c0" stroke-width="2" points="1052.5378,-43.0776 1044.5188,-36.1532 1046.4694,-46.567 1052.5378,-43.0776"/>
</g>
<!-- 24&#45;&gt;8 -->
<g id="edge16" class="edge">
<title>24&#45;&gt;8</title>
<path fill="none" stroke="#c0c0c0" stroke-width="2" d="M1250.6912,-71.805C1245.6045,-63.1469 1239.94,-53.5052 1234.827,-44.8022"/>
<polygon fill="#c0c0c0" stroke="#c0c0c0" stroke-width="2" points="1237.829,-43.0024 1229.7458,-36.1532 1231.7936,-46.5483 1237.829,-43.0024"/>
</g>
<!-- 25&#45;&gt;9 -->
<g id="edge18" class="edge">
<title>25&#45;&gt;9</title>
<path fill="none" stroke="#c0c0c0" stroke-width="2" d="M1436.6912,-71.805C1431.6045,-63.1469 1425.94,-53.5052 1420.827,-44.8022"/>
<polygon fill="#c0c0c0" stroke="#c0c0c0" stroke-width="2" points="1423.829,-43.0024 1415.7458,-36.1532 1417.7936,-46.5483 1423.829,-43.0024"/>
</g>
<!-- 26&#45;&gt;10 -->
<g id="edge20" class="edge">
<title>26&#45;&gt;10</title>
<path fill="none" stroke="#c0c0c0" stroke-width="2" d="M1622.6912,-71.805C1617.6045,-63.1469 1611.94,-53.5052 1606.827,-44.8022"/>
<polygon fill="#c0c0c0" stroke="#c0c0c0" stroke-width="2" points="1609.829,-43.0024 1601.7458,-36.1532 1603.7936,-46.5483 1609.829,-43.0024"/>
</g>
<!-- 27&#45;&gt;11 -->
<g id="edge22" class="edge">
<title>27&#45;&gt;11</title>
<path fill="none" stroke="#c0c0c0" stroke-width="2" d="M1808.6912,-71.805C1803.6045,-63.1469 1797.94,-53.5052 1792.827,-44.8022"/>
<polygon fill="#c0c0c0" stroke="#c0c0c0" stroke-width="2" points="1795.829,-43.0024 1787.7458,-36.1532 1789.7936,-46.5483 1795.829,-43.0024"/>
</g>
<!-- 28&#45;&gt;12 -->
<g id="edge24" class="edge">
<title>28&#45;&gt;12</title>
<path fill="none" stroke="#c0c0c0" stroke-width="2" d="M1994.6912,-71.805C1989.6045,-63.1469 1983.94,-53.5052 1978.827,-44.8022"/>
<polygon fill="#c0c0c0" stroke="#c0c0c0" stroke-width="2" points="1981.829,-43.0024 1973.7458,-36.1532 1975.7936,-46.5483 1981.829,-43.0024"/>
</g>
<!-- 29 -->
<g id="node29" class="node">
<title>29</title>
<path fill="none" stroke="#9fd856" stroke-width="2" d="M1272.0807,-286.5C1272.0807,-286.5 1242.0807,-286.5 1242.0807,-286.5 1236.0807,-286.5 1230.0807,-280.5 1230.0807,-274.5 1230.0807,-274.5 1230.0807,-262.5 1230.0807,-262.5 1230.0807,-256.5 1236.0807,-250.5 1242.0807,-250.5 1242.0807,-250.5 1272.0807,-250.5 1272.0807,-250.5 1278.0807,-250.5 1284.0807,-256.5 1284.0807,-262.5 1284.0807,-262.5 1284.0807,-274.5 1284.0807,-274.5 1284.0807,-280.5 1278.0807,-286.5 1272.0807,-286.5"/>
<text text-anchor="middle" x="1257.0807" y="-266" font-family="sans" font-size="10.00" fill="#000000">norm</text>
</g>
<!-- 29&#45;&gt;13 -->
<g id="edge25" class="edge">
<title>29&#45;&gt;13</title>
<path fill="none" stroke="#c0c0c0" stroke-width="2" d="M1245.3183,-250.1906C1238.2507,-239.1892 1229.1325,-224.9957 1221.268,-212.7538"/>
<polygon fill="#c0c0c0" stroke="#c0c0c0" stroke-width="2" points="1224.16,-210.7799 1215.8103,-204.2582 1218.2706,-214.5635 1224.16,-210.7799"/>
</g>
<!-- 29&#45;&gt;14 -->
<g id="edge26" class="edge">
<title>29&#45;&gt;14</title>
<path fill="none" stroke="#c0c0c0" stroke-width="2" d="M1268.8432,-250.1906C1275.9107,-239.1892 1285.029,-224.9957 1292.8935,-212.7538"/>
<polygon fill="#c0c0c0" stroke="#c0c0c0" stroke-width="2" points="1295.8909,-214.5635 1298.3512,-204.2582 1290.0014,-210.7799 1295.8909,-214.5635"/>
</g>
<!-- 29&#45;&gt;22 -->
<g id="edge34" class="edge">
<title>29&#45;&gt;22</title>
<path fill="none" stroke="#c0c0c0" stroke-width="2" d="M1284.1946,-257.0287C1312.9181,-244.8765 1359.0928,-225.3411 1395.7536,-209.8307"/>
<polygon fill="#c0c0c0" stroke="#c0c0c0" stroke-width="2" points="1397.4887,-212.897 1405.3346,-205.7772 1394.7612,-206.4503 1397.4887,-212.897"/>
</g>
<!-- 30 -->
<g id="node30" class="node">
<title>30</title>
<path fill="none" stroke="#56d89a" stroke-width="2" d="M868.0807,-361C868.0807,-361 838.0807,-361 838.0807,-361 832.0807,-361 826.0807,-355 826.0807,-349 826.0807,-349 826.0807,-337 826.0807,-337 826.0807,-331 832.0807,-325 838.0807,-325 838.0807,-325 868.0807,-325 868.0807,-325 874.0807,-325 880.0807,-331 880.0807,-337 880.0807,-337 880.0807,-349 880.0807,-349 880.0807,-355 874.0807,-361 868.0807,-361"/>
<text text-anchor="middle" x="853.0807" y="-340.5" font-family="sans" font-size="10.00" fill="#000000">trim</text>
</g>
<!-- 30&#45;&gt;15 -->
<g id="edge27" class="edge">
<title>30&#45;&gt;15</title>
<path fill="none" stroke="#c0c0c0" stroke-width="2" d="M825.9248,-336.3231C776.9455,-324.2803 672.8399,-298.6834 607.461,-282.6083"/>
<polygon fill="#c0c0c0" stroke="#c0c0c0" stroke-width="2" points="608.2577,-279.2001 597.7112,-280.2111 606.5863,-285.9976 608.2577,-279.2001"/>
</g>
<!-- 30&#45;&gt;29 -->
<g id="edge41" class="edge">
<title>30&#45;&gt;29</title>
<path fill="none" stroke="#c0c0c0" stroke-width="2" d="M880.2156,-337.9962C950.651,-325.0075 1139.4158,-290.1981 1219.8987,-275.3566"/>
<polygon fill="#c0c0c0" stroke="#c0c0c0" stroke-width="2" points="1220.8645,-278.7376 1230.0639,-273.4821 1219.595,-271.8537 1220.8645,-278.7376"/>
</g>
<!-- 31 -->
<g id="node31" class="node">
<title>31</title>
<path fill="none" stroke="#ced856" stroke-width="2" d="M868.0807,-433C868.0807,-433 838.0807,-433 838.0807,-433 832.0807,-433 826.0807,-427 826.0807,-421 826.0807,-421 826.0807,-409 826.0807,-409 826.0807,-403 832.0807,-397 838.0807,-397 838.0807,-397 868.0807,-397 868.0807,-397 874.0807,-397 880.0807,-403 880.0807,-409 880.0807,-409 880.0807,-421 880.0807,-421 880.0807,-427 874.0807,-433 868.0807,-433"/>
<text text-anchor="middle" x="853.0807" y="-412.5" font-family="sans" font-size="10.00" fill="#000000">decon</text>
</g>
<!-- 31&#45;&gt;30 -->
<g id="edge42" class="edge">
<title>31&#45;&gt;30</title>
<path fill="none" stroke="#c0c0c0" stroke-width="2" d="M853.0807,-396.8314C853.0807,-389.131 853.0807,-379.9743 853.0807,-371.4166"/>
<polygon fill="#c0c0c0" stroke="#c0c0c0" stroke-width="2" points="856.5808,-371.4132 853.0807,-361.4133 849.5808,-371.4133 856.5808,-371.4132"/>
</g>
<!-- 32 -->
<g id="node32" class="node">
<title>32</title>
<path fill="none" stroke="#5682d8" stroke-width="2" d="M868.0807,-505C868.0807,-505 838.0807,-505 838.0807,-505 832.0807,-505 826.0807,-499 826.0807,-493 826.0807,-493 826.0807,-481 826.0807,-481 826.0807,-475 832.0807,-469 838.0807,-469 838.0807,-469 868.0807,-469 868.0807,-469 874.0807,-469 880.0807,-475 880.0807,-481 880.0807,-481 880.0807,-493 880.0807,-493 880.0807,-499 874.0807,-505 868.0807,-505"/>
<text text-anchor="middle" x="853.0807" y="-484.5" font-family="sans" font-size="10.00" fill="#000000">repair</text>
</g>
<!-- 32&#45;&gt;31 -->
<g id="edge43" class="edge">
<title>32&#45;&gt;31</title>
<path fill="none" stroke="#c0c0c0" stroke-width="2" d="M853.0807,-468.8314C853.0807,-461.131 853.0807,-451.9743 853.0807,-443.4166"/>
<polygon fill="#c0c0c0" stroke="#c0c0c0" stroke-width="2" points="856.5808,-443.4132 853.0807,-433.4133 849.5808,-443.4133 856.5808,-443.4132"/>
</g>
<!-- 33 -->
<g id="node33" class="node">
<title>33</title>
<path fill="none" stroke="#d8b456" stroke-width="2" d="M832.5807,-577C832.5807,-577 765.5807,-577 765.5807,-577 759.5807,-577 753.5807,-571 753.5807,-565 753.5807,-565 753.5807,-553 753.5807,-553 753.5807,-547 759.5807,-541 765.5807,-541 765.5807,-541 832.5807,-541 832.5807,-541 838.5807,-541 844.5807,-547 844.5807,-553 844.5807,-553 844.5807,-565 844.5807,-565 844.5807,-571 838.5807,-577 832.5807,-577"/>
<text text-anchor="middle" x="799.0807" y="-562" font-family="sans" font-size="10.00" fill="#000000">combine_reads</text>
<text text-anchor="middle" x="799.0807" y="-551" font-family="sans" font-size="10.00" fill="#000000">r: 1</text>
</g>
<!-- 33&#45;&gt;32 -->
<g id="edge44" class="edge">
<title>33&#45;&gt;32</title>
<path fill="none" stroke="#c0c0c0" stroke-width="2" d="M812.7072,-540.8314C818.9268,-532.5386 826.413,-522.557 833.2407,-513.4533"/>
<polygon fill="#c0c0c0" stroke="#c0c0c0" stroke-width="2" points="836.0708,-515.5133 839.2708,-505.4133 830.4707,-511.3133 836.0708,-515.5133"/>
</g>
<!-- 34 -->
<g id="node34" class="node">
<title>34</title>
<path fill="none" stroke="#d8b456" stroke-width="2" d="M941.5807,-577C941.5807,-577 874.5807,-577 874.5807,-577 868.5807,-577 862.5807,-571 862.5807,-565 862.5807,-565 862.5807,-553 862.5807,-553 862.5807,-547 868.5807,-541 874.5807,-541 874.5807,-541 941.5807,-541 941.5807,-541 947.5807,-541 953.5807,-547 953.5807,-553 953.5807,-553 953.5807,-565 953.5807,-565 953.5807,-571 947.5807,-577 941.5807,-577"/>
<text text-anchor="middle" x="908.0807" y="-562" font-family="sans" font-size="10.00" fill="#000000">combine_reads</text>
<text text-anchor="middle" x="908.0807" y="-551" font-family="sans" font-size="10.00" fill="#000000">r: 2</text>
</g>
<!-- 34&#45;&gt;32 -->
<g id="edge45" class="edge">
<title>34&#45;&gt;32</title>
<path fill="none" stroke="#c0c0c0" stroke-width="2" d="M894.2019,-540.8314C887.8672,-532.5386 880.2423,-522.557 873.2881,-513.4533"/>
<polygon fill="#c0c0c0" stroke="#c0c0c0" stroke-width="2" points="875.9982,-511.2353 867.1464,-505.4133 870.4355,-515.4847 875.9982,-511.2353"/>
</g>
</g>
</svg>
